<?xml version="1.0" encoding="utf-8"?>
<!-- Generator: Adobe Illustrator 22.0.1, SVG Export Plug-In . SVG Version: 6.00 Build 0)  -->
<svg version="1.1" id="Layer_2_1_" xmlns="http://www.w3.org/2000/svg" xmlns:xlink="http://www.w3.org/1999/xlink" x="0px" y="0px"
	 viewBox="0 0 600 600" style="enable-background:new 0 0 600 600;" xml:space="preserve">
<style type="text/css">
	.st0{fill:#57BF90;}
</style>
<path class="st0" d="M301,87C183.8,87,88.9,181.9,88.9,299S183.8,511.1,301,511.1c117.1,0,212-94.9,212-212S418.1,87,301,87z
	 M407,317.7c-1.2,63.3-42.6,93.2-109.5,96.7c-34,1.8-54.3,3.4-64.7,5.1c-1.8,0.3-3.2-0.2-3.6-2.5c-0.4-2.3,4.2-31.2,4.2-31.2
	c0-1.2,1.1-2.2,2.3-2c8.6,1.1,35.7,3.3,70.1,1c44.6-3,72.7-28,72.7-64.8c0-36.5-26.3-89-102.3-78.1c-1.2,0.1-2,1.2-2.1,2.3
	c-0.7,12.3-4.9,82.1,1.7,117.9c0.3,1.7-1.5,2.8-3.3,3c-10,1-18.9-0.7-28.9-2.3c-2.4-0.4-4.4-1.7-3.8-4.1c4.6-24.2,6-116.3,5.9-138.4
	c-0.1-20.9-2.7-47.1-3.9-51.3c-0.5-1.8-0.1-3.4,1.9-3.7c4.2-0.6,28.1,0,31.2,0.1c3.3,0.1,2.8,1.7,2.7,4.3s-1.8,41.5-1.8,41.5
	c0,1,0.9,1.8,1.9,1.7C351.7,202.7,408.2,254.2,407,317.7z"/>
</svg>
